<?xml version="1.0" encoding="UTF-8"?><svg id="Layer_1" xmlns="http://www.w3.org/2000/svg" viewBox="0 0 153.5 153.5"><defs><style>.cls-1{fill:#353535;}.cls-1,.cls-2,.cls-3,.cls-4,.cls-5,.cls-6,.cls-7,.cls-8,.cls-9,.cls-10{stroke-width:2px;}.cls-1,.cls-2,.cls-3,.cls-4,.cls-5,.cls-6,.cls-8,.cls-9,.cls-10,.cls-11{stroke-miterlimit:10;}.cls-1,.cls-2,.cls-3,.cls-4,.cls-5,.cls-7,.cls-9,.cls-11{stroke:#0a0808;}.cls-2{fill:#c4c4c4;}.cls-3{fill:#656668;}.cls-4{fill:#d3d3d3;}.cls-5{fill:#744;}.cls-12{fill:#5d698c;}.cls-6{fill:#969696;}.cls-6,.cls-10{stroke:#000;}.cls-7{fill:#878787;stroke-linejoin:bevel;}.cls-8{fill:#e4e4e3;stroke:#221f1f;}.cls-9{fill:#2d5949;}.cls-10{fill:#aaaaac;}.cls-11{fill:#442117;stroke-width:3px;}</style></defs><rect class="cls-12" width="153.5" height="153.5" rx="20.68" ry="20.68"/><rect class="cls-8" x="101.39" y="109.39" width="19.65" height="8.5" rx="2.04" ry="2.04"/><rect class="cls-6" x="57.06" y="66" width="37.57" height="11.14" rx="4.25" ry="4.25"/><path class="cls-4" d="M35.83,56.54l-.63-17.04c-.05-1.43,1.32-2.61,3.05-2.63l41.4-.51c1.99-.02,3.66,1.48,3.55,2.95l-.52,17.4-46.86-.18Z"/><polygon class="cls-10" points="74.57 56.18 74 47.82 112.68 47.67 112.26 56.03 74.57 56.18"/><polygon class="cls-7" points="35.64 53.47 28.03 57.29 35.83 57.12 35.64 53.47"/><polygon class="cls-7" points="119.48 53.12 125.97 57.26 119.32 57.07 119.48 53.12"/><rect class="cls-11" x="26.56" y="56.81" width="101.08" height="66.84" rx="4.25" ry="4.25"/><rect class="cls-3" x="101.53" y="108.72" width="19.65" height="8.5" rx="2.04" ry="2.04"/><rect class="cls-1" x="57.19" y="65.34" width="37.57" height="11.14" rx="4.25" ry="4.25"/><polygon class="cls-5" points="42.37 55.62 41.97 43.27 75.85 42.9 75.81 55.62 42.37 55.62"/><path class="cls-2" d="M69.25,55.62l-.5-13.83c-.01-.28.22-.52.5-.52l49.96-.14c.31,0,.56.26.53.57l-1.09,14.07-49.4-.16Z"/><polygon class="cls-9" points="74.71 55.51 74.14 47.15 112.82 47 112.39 55.36 74.71 55.51"/></svg>