<?xml version="1.0" encoding="UTF-8"?><svg id="Layer_1" xmlns="http://www.w3.org/2000/svg" viewBox="0 0 153.5 153.5"><defs><style>.cls-1{fill:#9a4343;stroke-width:3px;}.cls-1,.cls-2,.cls-3,.cls-4{stroke:#211e1e;}.cls-1,.cls-3{stroke-miterlimit:10;}.cls-5{fill:#775757;}.cls-2{fill:none;stroke-linecap:round;}.cls-2,.cls-3,.cls-4{stroke-width:2px;}.cls-2,.cls-4{stroke-linejoin:round;}.cls-3{fill:#cd9f2e;}.cls-4{fill:#f3f4f5;}</style></defs><rect class="cls-5" width="153.5" height="153.5" rx="20.68" ry="20.68"/><rect class="cls-1" x="17.65" y="30.01" width="68.85" height="97.95" rx="5.79" ry="5.79"/><rect class="cls-3" x="67.5" y="27.93" width="6.44" height="102.45"/><path class="cls-4" d="M103.17,117.87c-13.14-6.02,1.04-46.63,1.04-46.63l2.96,8.44-.97-12.17,2.59-7.72,2.85,7.18-.47-10.38s-.73-12.09,21.67-35.96c4.8-5.12.49,38.14.49,38.14l-7.43,3.72,8.47.3-8.77,3.42,7.43,1.78-7.88,3.27,6.99.45s3.78,36.12-12.79,38.8c-10.61,1.72-16.19,7.36-16.19,7.36Z"/><path class="cls-2" d="M99.81,130.85s14.12-68.05,34.3-110.61"/></svg>