<?xml version="1.0" encoding="UTF-8"?><svg id="Layer_1" xmlns="http://www.w3.org/2000/svg" viewBox="0 0 153.5 153.5"><defs><style>.cls-1{fill:#5464ad;stroke-linecap:square;stroke-width:2px;}.cls-1,.cls-2{stroke:#221f1f;stroke-miterlimit:10;}.cls-3{fill:#ffcd76;}.cls-4{fill:#fff;}.cls-5{fill:#cccbcb;}.cls-2{stroke-width:3px;}.cls-2,.cls-6{fill:#5564ad;}.cls-7{fill:#7c8bc4;}</style></defs><rect class="cls-3" width="153.5" height="153.5" rx="20.68" ry="20.68"/><polygon class="cls-5" points="28.15 136.05 50.58 97.43 65.53 113.3 28.15 136.05"/><polygon class="cls-4" points="35.39 128.61 50.43 102.65 60.45 113.39 35.39 128.61"/><polygon class="cls-5" points="97.06 142.55 70.18 113.9 91.21 101.24 97.06 142.55"/><polygon class="cls-4" points="93.52 135.07 73.97 114.19 89.37 105.15 93.52 135.07"/><polygon class="cls-5" points="52.14 94.7 64.48 73.4 87.68 75.31 90.88 97.92 68.13 111.7 52.14 94.7"/><polyline class="cls-4" points="68.16 108.05 55.1 94.52 65.71 76.07 85.35 77.91 88 96.29"/><path class="cls-1" d="M131.03,46.01l-4.85,12.32c-.21.55-.98.5-1.13-.06l-2.94-10.52c-.6-2.16-2.26-3.84-4.36-4.42l-8.36-2.34c-.66-.18-.67-1.13-.02-1.34l9.81-3.16c1.09-.35,1.97-1.19,2.39-2.29l4.84-12.53c.1-.25.44-.24.52.01l4.16,12.55c.38,1.15,1.27,2.03,2.4,2.38l10.1,3.14c.48.15.47.85-.01.98l-9.85,2.8c-1.22.35-2.22,1.26-2.69,2.47Z"/><path class="cls-1" d="M42.68,39.55l-5.82,14.77c-.26.65-1.17.61-1.36-.07l-3.52-12.61c-.72-2.59-2.7-4.6-5.22-5.3l-10.02-2.8c-.79-.22-.8-1.36-.03-1.61l11.76-3.79c1.31-.42,2.36-1.43,2.87-2.74l5.8-15.02c.12-.3.53-.29.63.02l4.98,15.04c.45,1.37,1.52,2.43,2.87,2.85l12.1,3.77c.57.18.56,1.02-.02,1.18l-11.8,3.35c-1.46.42-2.66,1.51-3.23,2.96Z"/><polygon class="cls-5" points="29.38 70.46 61.22 73.13 49.98 92.47 29.38 70.46"/><polygon class="cls-4" points="35.83 73.33 56.16 75.24 49.57 87.55 35.83 73.33"/><polyline class="cls-5" points="90.63 75.54 122.97 78.25 93.52 96.29 90.6 75.39"/><polygon class="cls-4" points="93.61 78.1 116.01 79.64 95.42 92.69 93.61 78.1"/><polygon class="cls-5" points="66.15 70.54 82.87 41.73 87.22 72.34 66.15 70.54"/><polygon class="cls-4" points="70.44 68.22 81.38 49.37 84.23 69.39 70.44 68.22"/><path class="cls-4" d="M39.82,36.2l-3.2,10.85c-.15.69-.14.69-.29,0l-1.81-9.77c-.36-1.32-1.34-2.35-2.59-2.71l-7.38-1.41c-1.96-.43-1.66-.39-.01-.82l8.25-1.97c.65-.22,1.17-.73,1.42-1.4l2.9-10.29c.14-.55.17-.65.31,0l2.45,10.29c.22.7.75,1.25,1.42,1.46l8.35,1.94c1.34.3,1.37.28,0,.6l-8.2,1.7c-.73.21-1.32.77-1.6,1.52Z"/><path class="cls-4" d="M128.39,43.02l-2.51,8.51c-.12.54-.11.54-.23,0l-1.42-7.67c-.28-1.04-1.05-1.85-2.03-2.13l-5.79-1.1c-1.54-.34-1.3-.31-.01-.65l6.47-1.54c.51-.17.92-.57,1.12-1.1l2.27-8.07c.11-.43.13-.51.24,0l1.92,8.08c.18.55.59.98,1.12,1.15l6.55,1.52c1.05.24,1.08.22,0,.47l-6.44,1.34c-.57.17-1.03.61-1.26,1.19Z"/><path class="cls-2" d="M98.79,145.82L26.19,68.42c-.14-.15-.02-.38.18-.37l100.79,8.38c.21.02.28.29.1.4l-102.52,62.46c-.19.12-.42-.1-.3-.3l59.13-101.88c.1-.18.38-.13.4.08l15.19,108.44c.03.21-.23.33-.38.18Z"/><polygon class="cls-6" points="28.29 135.39 50.72 96.76 65.67 112.63 28.29 135.39"/><polygon class="cls-7" points="35.53 127.95 50.56 101.98 60.59 112.72 35.53 127.95"/><polygon class="cls-6" points="97.19 141.89 70.32 113.23 91.34 100.57 97.19 141.89"/><polygon class="cls-7" points="93.66 134.41 74.11 113.53 89.51 104.49 93.66 134.41"/><polygon class="cls-6" points="52.28 94.04 64.62 72.74 87.82 74.64 91.02 97.26 68.27 111.04 52.28 94.04"/><polyline class="cls-7" points="68.3 107.38 55.24 93.86 65.85 75.41 85.49 77.25 88.13 95.63"/><polygon class="cls-6" points="29.51 69.79 61.36 72.46 50.12 91.8 29.51 69.79"/><polygon class="cls-7" points="35.97 72.66 56.3 74.57 49.71 86.88 35.97 72.66"/><polyline class="cls-6" points="90.77 74.88 123.1 77.58 93.66 95.62 90.74 74.72"/><polygon class="cls-7" points="93.75 77.44 116.15 78.98 95.56 92.02 93.75 77.44"/><polygon class="cls-6" points="66.28 69.87 83 41.07 87.36 71.67 66.28 69.87"/><polygon class="cls-7" points="70.58 67.55 81.52 48.7 84.37 68.73 70.58 67.55"/><path class="cls-7" d="M39.81,36.2l-3.2,10.85c-.15.69-.14.69-.29,0l-1.81-9.77c-.36-1.32-1.34-2.35-2.59-2.71l-7.38-1.41c-1.96-.43-1.66-.39-.01-.82l8.25-1.97c.65-.22,1.17-.73,1.42-1.4l2.9-10.29c.14-.55.17-.65.31,0l2.45,10.29c.22.7.75,1.25,1.42,1.46l8.35,1.94c1.34.3,1.37.28,0,.6l-8.2,1.7c-.73.21-1.32.77-1.6,1.52Z"/><path class="cls-7" d="M128.39,43.02l-2.51,8.51c-.12.54-.11.54-.23,0l-1.42-7.67c-.28-1.04-1.05-1.85-2.03-2.13l-5.79-1.1c-1.54-.34-1.3-.31-.01-.65l6.47-1.54c.51-.17.92-.57,1.12-1.1l2.27-8.07c.11-.43.13-.51.24,0l1.92,8.08c.18.55.59.98,1.12,1.15l6.55,1.52c1.05.24,1.08.22,0,.47l-6.44,1.34c-.57.17-1.03.61-1.26,1.19Z"/></svg>