<?xml version="1.0" encoding="UTF-8"?><svg id="Layer_1" xmlns="http://www.w3.org/2000/svg" viewBox="0 0 153.5 153.5"><defs><style>.cls-1{fill:#afe1f2;}.cls-2,.cls-3{stroke-miterlimit:10;}.cls-2,.cls-3,.cls-4,.cls-5,.cls-6{stroke:#231f20;stroke-width:3px;}.cls-2,.cls-4{fill:#e992bd;}.cls-3,.cls-6{fill:#8c8b8b;}.cls-4{stroke-linecap:round;}.cls-4,.cls-5,.cls-6{stroke-linejoin:round;}.cls-5{fill:#ea93be;}</style></defs><rect class="cls-1" width="153.5" height="153.5" rx="20.68" ry="20.68"/><polygon class="cls-2" points="40.92 108.07 40.92 119.38 104.25 118.33 91.37 94.5 40.92 108.07"/><path class="cls-5" d="M87.13,35.88s17.94-8.05,23.04,1.52,24.24-2.4,23.42-1.74c0,0,4.11,10.58-10.39,16.75h0c2.41,1.99,5.16,3.53,8.12,4.56l4.61,1.6c-2.32,6.47-12.79,13.93-32.44-.75-1.39-1.04-2.95-1.87-4.63-2.3-3.65-.95-9.36-.88-12.49,7.12l.76-26.75Z"/><path class="cls-4" d="M98.15,114.7s-18.2,0-42.46-12.13c-19.84-9.92-37.36,5.65-43.09,11.66-1.27,1.33-1.97,3.1-1.97,4.95v9.42h131.2l-.07-22.76c-.61-11.47-19.48-16.98-19.48-16.98-23.83-7.94-56.65,8.35-64.74,12.69-1.2.65-1.86,1.03-1.86,1.03"/><polygon class="cls-3" points="82.41 89.94 82.41 31.99 87.42 31.99 87.42 89.13 82.41 89.94"/><path class="cls-6" d="M80.52,30.31v-4.65c0-.93.75-1.68,1.68-1.68h5.54c.93,0,1.68.75,1.68,1.68v4.58c0,.92-.74,1.67-1.66,1.68l-5.54.07c-.93.01-1.7-.74-1.7-1.68Z"/></svg>