<?xml version="1.0" encoding="UTF-8"?><svg id="Layer_1" xmlns="http://www.w3.org/2000/svg" viewBox="0 0 153.5 153.5"><defs><style>.cls-1,.cls-2,.cls-3,.cls-4{stroke-width:3px;}.cls-1,.cls-2,.cls-4{stroke-miterlimit:10;}.cls-1,.cls-3{fill:#fab045;}.cls-1,.cls-3,.cls-4{stroke:#221f1f;}.cls-5{fill:#1a3d5b;}.cls-2{stroke:#fff;}.cls-2,.cls-3,.cls-4{stroke-linecap:round;}.cls-2,.cls-4{fill:none;}.cls-3{stroke-linejoin:round;}</style></defs><rect class="cls-5" width="153.5" height="153.5" rx="20.68" ry="20.68"/><path class="cls-4" d="M115.76,45.9s-2.66-5.72-9.52-8.63"/><path class="cls-4" d="M74.23,52.01s-1.83-3.93-6.53-5.92"/><circle class="cls-1" cx="61.93" cy="47.17" r="17.27"/><circle class="cls-1" cx="100.92" cy="45.79" r="20.43"/><path class="cls-1" d="M51.04,75.4l-20.23-16.96c-1.92-1.61-4.83-.24-4.83,2.26v36.63c0,2.6,3.13,3.92,4.99,2.11l20.23-19.67c1.25-1.22,1.18-3.25-.16-4.37Z"/><rect class="cls-1" x="43.71" y="53.96" width="76.93" height="51.32" rx="7.91" ry="7.91"/><path class="cls-2" d="M115.9,39.23s-2.66-5.72-9.52-8.63"/><path class="cls-2" d="M73.37,41.34s-1.83-3.93-6.53-5.92"/><path class="cls-4" d="M57.59,129.67l22.64-22.42c1.29-1.58,4.06-1.59,5.36-.01l21.19,23.35"/><line class="cls-3" x1="82.64" y1="105.96" x2="82.4" y2="134.63"/></svg>