<?xml version="1.0" encoding="UTF-8"?><svg id="Layer_1" xmlns="http://www.w3.org/2000/svg" viewBox="0 0 153.5 153.5"><defs><style>.cls-1{fill:#f48c8c;}.cls-2{fill:#9a3d3e;}.cls-2,.cls-3,.cls-4,.cls-5,.cls-6,.cls-7,.cls-8{stroke-miterlimit:10;}.cls-2,.cls-3,.cls-4,.cls-5,.cls-8{stroke:#231f20;}.cls-2,.cls-5{stroke-linecap:square;stroke-width:2px;}.cls-3{fill:#895151;}.cls-3,.cls-4,.cls-7,.cls-8{stroke-width:3px;}.cls-4{fill:#8c8b8b;}.cls-9{fill:#7ec687;}.cls-5{fill:#993d3d;}.cls-6{stroke:#fff;stroke-linecap:round;stroke-width:5px;}.cls-6,.cls-7{fill:#f7dac1;}.cls-7{stroke:#000;}.cls-10{fill:#f48d8d;}.cls-8{fill:#c0dfac;}</style></defs><rect class="cls-9" width="153.5" height="153.5" rx="20.68" ry="20.68"/><circle class="cls-7" cx="87.29" cy="58.26" r="30.79"/><path class="cls-6" d="M92.42,80.85s10.84-3.31,16.87-15.36"/><path class="cls-3" d="M58.78,85.22l-34.33,37.17s-7.77,7.28.97,15.05c8.74,7.77,17.46,6.18,21.73-.23,4.27-6.41,23.48-43.32,23.48-43.32l-11.86-8.66Z"/><circle class="cls-4" cx="87.65" cy="57.73" r="41.09"/><circle class="cls-8" cx="87.43" cy="57.59" r="30.79"/><path class="cls-6" d="M92.56,80.19s10.84-3.31,16.87-15.36"/><path class="cls-5" d="M113.55,34.92l-4.85,12.32c-.21.55-.98.5-1.13-.06l-2.94-10.52c-.6-2.16-2.26-3.84-4.36-4.42l-8.36-2.34c-.66-.18-.67-1.13-.02-1.34l9.81-3.16c1.09-.35,1.97-1.19,2.39-2.29l4.84-12.53c.1-.25.44-.24.52.01l4.16,12.55c.38,1.15,1.27,2.03,2.4,2.38l10.1,3.14c.48.15.47.85-.01.98l-9.85,2.8c-1.22.35-2.22,1.26-2.69,2.47Z"/><path class="cls-1" d="M110.74,31.73l-2.32,7.86c-.11.5-.1.5-.21,0l-1.31-7.08c-.26-.96-.97-1.71-1.88-1.97l-5.35-1.02c-1.42-.31-1.21-.29,0-.6l5.98-1.43c.47-.16.85-.53,1.03-1.02l2.1-7.46c.1-.4.12-.47.23,0l1.77,7.46c.16.51.55.9,1.03,1.06l6.05,1.41c.97.22.99.2,0,.44l-5.95,1.24c-.53.15-.96.56-1.16,1.1Z"/><path class="cls-2" d="M135.34,51.28l-2.98,7.65c-.13.34-.6.31-.7-.04l-1.8-6.53c-.37-1.34-1.39-2.38-2.68-2.75l-5.14-1.45c-.4-.11-.41-.7-.01-.83l6.03-1.96c.67-.22,1.21-.74,1.47-1.42l2.98-7.78c.06-.15.27-.15.32,0l2.55,7.79c.23.71.78,1.26,1.47,1.48l6.21,1.95c.29.09.29.53,0,.61l-6.05,1.74c-.75.22-1.36.78-1.66,1.53Z"/><path class="cls-10" d="M133.28,48.92l-1.07,3.66c-.05.23-.05.23-.1,0l-.6-3.3c-.12-.45-.45-.79-.86-.92l-2.47-.47c-.65-.15-.56-.13,0-.28l2.76-.67c.22-.07.39-.25.48-.47l.97-3.47c.05-.18.06-.22.1,0l.82,3.48c.08.24.25.42.48.49l2.79.65c.45.1.46.1,0,.2l-2.74.58c-.24.07-.44.26-.54.51Z"/></svg>