<?xml version="1.0" encoding="UTF-8"?><svg id="Layer_1" xmlns="http://www.w3.org/2000/svg" viewBox="0 0 153.5 153.5"><defs><style>.cls-1{fill:#9b6a6a;}.cls-2{fill:#666;}.cls-2,.cls-3,.cls-4,.cls-5,.cls-6,.cls-7,.cls-8{stroke-miterlimit:10;}.cls-2,.cls-4{stroke:#231f20;}.cls-2,.cls-4,.cls-5,.cls-6{stroke-width:3px;}.cls-3{stroke:#fff;}.cls-3,.cls-6{fill:#f7dac1;}.cls-3,.cls-8{stroke-linecap:round;stroke-width:5px;}.cls-9{fill:#607f63;}.cls-4{fill:#543b3b;}.cls-5{fill:#8d9b84;}.cls-5,.cls-6,.cls-7{stroke:#000;}.cls-7{fill:#603e3e;stroke-linecap:square;stroke-width:2px;}.cls-8{fill:none;stroke:#ccc;}</style></defs><rect class="cls-9" width="153.5" height="153.5" rx="20.68" ry="20.68"/><circle class="cls-6" cx="87.29" cy="58.26" r="30.79"/><path class="cls-3" d="M92.42,80.85s10.84-3.31,16.87-15.36"/><path class="cls-4" d="M58.78,85.22l-34.33,37.17s-7.77,7.28.97,15.05c8.74,7.77,17.46,6.18,21.73-.23,4.27-6.41,23.48-43.32,23.48-43.32l-11.86-8.66Z"/><circle class="cls-2" cx="87.65" cy="57.73" r="41.09"/><circle class="cls-5" cx="87.43" cy="57.59" r="30.79"/><path class="cls-8" d="M92.56,80.19s10.84-3.31,16.87-15.36"/><path class="cls-7" d="M113.55,34.92l-4.85,12.32c-.21.55-.98.5-1.13-.06l-2.94-10.52c-.6-2.16-2.26-3.84-4.36-4.42l-8.36-2.34c-.66-.18-.67-1.13-.02-1.34l9.81-3.16c1.09-.35,1.97-1.19,2.39-2.29l4.84-12.53c.1-.25.44-.24.52.01l4.16,12.55c.38,1.15,1.27,2.03,2.4,2.38l10.1,3.14c.48.15.47.85-.01.98l-9.85,2.8c-1.22.35-2.22,1.26-2.69,2.47Z"/><path class="cls-1" d="M110.74,31.73l-2.32,7.86c-.11.5-.1.5-.21,0l-1.31-7.08c-.26-.96-.97-1.71-1.88-1.97l-5.35-1.02c-1.42-.31-1.21-.29,0-.6l5.98-1.43c.47-.16.85-.53,1.03-1.02l2.1-7.46c.1-.4.12-.47.23,0l1.77,7.46c.16.51.55.9,1.03,1.06l6.05,1.41c.97.22.99.2,0,.44l-5.95,1.24c-.53.15-.96.56-1.16,1.1Z"/><path class="cls-7" d="M135.48,51.28l-3.01,7.65c-.13.34-.61.31-.7-.04l-1.82-6.53c-.37-1.34-1.4-2.38-2.71-2.75l-5.19-1.45c-.41-.11-.42-.7-.01-.83l6.09-1.96c.68-.22,1.22-.74,1.49-1.42l3.01-7.78c.06-.15.27-.15.33,0l2.58,7.79c.24.71.79,1.26,1.49,1.48l6.27,1.95c.3.09.29.53,0,.61l-6.12,1.74c-.76.22-1.38.78-1.67,1.53Z"/><path class="cls-1" d="M133.6,49.15l-1.3,4.4c-.06.28-.06.28-.12,0l-.73-3.96c-.14-.54-.54-.95-1.05-1.1l-2.99-.57c-.79-.17-.67-.16,0-.33l3.35-.8c.26-.09.47-.3.58-.57l1.18-4.17c.06-.22.07-.26.13,0l.99,4.17c.09.28.31.51.58.59l3.39.79c.54.12.56.11,0,.24l-3.33.69c-.29.09-.53.31-.65.62Z"/></svg>