<?xml version="1.0" encoding="UTF-8"?><svg id="Layer_1" xmlns="http://www.w3.org/2000/svg" viewBox="0 0 153.5 153.5"><defs><style>.cls-1,.cls-2,.cls-3,.cls-4,.cls-5,.cls-6{stroke-miterlimit:10;}.cls-1,.cls-2,.cls-3,.cls-6{stroke:#221f1f;}.cls-1,.cls-2,.cls-5{stroke-width:2px;}.cls-1,.cls-6{fill:#8c8b8b;}.cls-2,.cls-3,.cls-7{fill:#de6666;}.cls-3,.cls-4,.cls-6{stroke-width:3px;}.cls-4,.cls-5{fill:none;stroke:#fff;stroke-linecap:round;}</style></defs><rect class="cls-7" width="153.5" height="153.5" rx="20.68" ry="20.68"/><circle class="cls-6" cx="56.93" cy="95.49" r="37.22"/><circle class="cls-3" cx="57" cy="95.37" r="13.81"/><path class="cls-6" d="M48.83,57.45l-1.03-5.61c-.21-1.39.7-2.7,2.08-2.97,4.68-.92,15.5-2.03,27.38,3.89,1.31.65,1.82,2.26,1.15,3.56l-2.78,5.55c-.65,1.26-1.56.4-2.84-.21-3.56-1.68-11.18-4.37-21.34-3.05-1.43.19-2.41.26-2.62-1.16Z"/><path class="cls-6" d="M90.95,76.65l5.06-2.63c1.27-.61,2.79-.12,3.45,1.12,2.25,4.2,6.48,14.23,4.31,27.32-.24,1.44-1.63,2.41-3.07,2.15l-6.12-1.03c-1.4-.25-.84-1.37-.64-2.78.56-3.9.9-11.97-3.34-21.3-.6-1.31-.96-2.23.34-2.85Z"/><path class="cls-6" d="M40.76,130.67l-2.53,5.11c-.66,1.24-2.18,1.74-3.45,1.14-4.3-2.06-13.63-7.65-19.61-19.5-.66-1.31-.11-2.9,1.21-3.54l5.55-2.79c1.28-.62,1.49.61,2.16,1.87,1.85,3.48,6.34,10.19,15.27,15.21,1.26.71,2.09,1.23,1.41,2.5Z"/><path class="cls-6" d="M84.6,122.85l4,4.06c.95,1.03.93,2.63-.05,3.63-3.35,3.39-11.69,10.37-24.85,12.14-1.45.19-2.78-.85-2.95-2.3l-.82-6.15c-.17-1.41,1.07-1.2,2.47-1.42,3.89-.61,11.7-2.65,19.38-9.44,1.08-.96,1.85-1.57,2.82-.51Z"/><path class="cls-6" d="M18.42,92.61l-5.67-.55c-1.39-.18-2.4-1.42-2.28-2.82.4-4.75,2.33-15.46,11.3-25.24.99-1.08,2.68-1.13,3.74-.12l4.57,4.2c1.03.98-.05,1.61-.99,2.68-2.6,2.96-7.29,9.53-8.83,19.67-.22,1.42-.41,2.39-1.84,2.2Z"/><path class="cls-4" d="M86.55,79.44s-4.64-9.97-16.59-15.04"/><circle class="cls-1" cx="112.98" cy="44.37" r="22.48"/><circle class="cls-2" cx="113.03" cy="44.3" r="9.17"/><path class="cls-1" d="M110.63,20.99l-.25-3.43c-.03-.85.6-1.58,1.45-1.65,2.87-.25,9.44-.2,16.19,4.14.74.48.95,1.48.46,2.22l-2.03,3.15c-.47.72-.96.14-1.69-.31-2.03-1.24-6.42-3.36-12.61-3.24-.87.02-1.46,0-1.5-.87Z"/><path class="cls-1" d="M134.66,35.3l3.21-1.25c.8-.28,1.68.11,2,.9,1.08,2.67,2.95,8.97.79,16.69-.24.85-1.14,1.34-1.98,1.09l-3.61-1.02c-.82-.24-.41-.88-.2-1.71.59-2.31,1.33-7.13-.6-13.01-.27-.83-.43-1.4.39-1.69Z"/><path class="cls-1" d="M100.95,64.43l-1.85,2.9c-.48.7-1.42.9-2.15.46-2.45-1.52-7.68-5.49-10.49-13-.31-.83.13-1.75.96-2.05l3.51-1.31c.81-.29.85.47,1.17,1.26.88,2.21,3.14,6.54,8.17,10.14.71.51,1.17.88.68,1.59Z"/><path class="cls-1" d="M127.8,62.62l2.14,2.7c.5.68.39,1.64-.27,2.18-2.24,1.81-7.71,5.46-15.72,5.65-.88.02-1.61-.69-1.62-1.58l-.08-3.75c0-.86.72-.65,1.58-.69,2.38-.11,7.2-.82,12.26-4.4.71-.5,1.21-.82,1.73-.12Z"/><path class="cls-1" d="M90.04,40.1l-3.37-.71c-.83-.2-1.35-1.01-1.19-1.85.56-2.83,2.42-9.13,8.45-14.42.66-.58,1.68-.5,2.26.17l2.47,2.82c.56.65-.14.96-.77,1.54-1.75,1.61-5,5.25-6.6,11.23-.22.84-.41,1.41-1.25,1.2Z"/><path class="cls-5" d="M129.13,33.3s-3.4-5.71-10.89-8.03"/></svg>