<?xml version="1.0" encoding="UTF-8"?><svg id="Layer_1" xmlns="http://www.w3.org/2000/svg" viewBox="0 0 153.5 153.5"><defs><style>.cls-1{fill:#cd8031;}.cls-1,.cls-2,.cls-3{stroke:#221f1f;stroke-miterlimit:10;stroke-width:3px;}.cls-2{fill:#d67e33;}.cls-3{fill:#f8c73b;}.cls-4{fill:#8873b3;}</style></defs><rect class="cls-4" width="153.5" height="153.5" rx="20.68" ry="20.68"/><path class="cls-1" d="M110.7,85.32l1.8-11.56,6.27,7.35-7.12,4.81c-.44.3-1.03-.07-.95-.6Z"/><path class="cls-3" d="M89.29,67.4l43.48-14.07c.15-.05.3.08.27.23l-5.89,37.01c-.03.18-.25.24-.37.1l-14.22-16.91s-.07-.06-.11-.07l-23.15-5.89c-.21-.05-.22-.34-.01-.41Z"/><line class="cls-3" x1="112.52" y1="73.71" x2="133.11" y2="53.22"/><path class="cls-2" d="M57.7,107.83l3.06-19.68c.17-1.08,1.53-1.47,2.24-.63l9.53,11.17c.5.58.38,1.47-.26,1.89l-12.59,8.51c-.93.63-2.16-.15-1.98-1.26Z"/><path class="cls-3" d="M18.64,72.02l80.89-26.18c.91-.29,1.81.48,1.66,1.42l-11.01,69.14c-.17,1.08-1.54,1.46-2.25.62l-26.44-31.42c-.17-.21-.41-.35-.66-.42l-42.11-10.71c-1.25-.32-1.3-2.07-.08-2.46Z"/><line class="cls-3" x1="61.23" y1="85.29" x2="101.52" y2="45.2"/></svg>