<?xml version="1.0" encoding="UTF-8"?><svg id="Layer_1" xmlns="http://www.w3.org/2000/svg" viewBox="0 0 153.5 153.5"><defs><style>.cls-1,.cls-2,.cls-3,.cls-4,.cls-5,.cls-6,.cls-7,.cls-8,.cls-9,.cls-10,.cls-11,.cls-12,.cls-13,.cls-14,.cls-15,.cls-16{stroke-miterlimit:10;}.cls-1,.cls-2,.cls-3,.cls-4,.cls-9,.cls-12,.cls-13,.cls-15,.cls-16{fill:none;}.cls-1,.cls-2,.cls-3,.cls-9,.cls-12,.cls-13,.cls-15{stroke-linecap:round;}.cls-1,.cls-2,.cls-4,.cls-12,.cls-16{stroke-width:2px;}.cls-1,.cls-13{stroke:#000;}.cls-17{fill:#1c4a56;}.cls-2,.cls-15{stroke:#ccc;}.cls-3,.cls-5,.cls-6,.cls-7,.cls-8,.cls-9,.cls-10,.cls-11,.cls-13,.cls-14,.cls-15{stroke-width:3px;}.cls-3,.cls-5,.cls-6,.cls-7,.cls-8,.cls-10,.cls-11,.cls-14{stroke:#231f20;}.cls-4{stroke:#1c4a56;}.cls-18{fill:#dbdbdb;}.cls-19{fill:#424243;}.cls-20,.cls-7{fill:#2f5e50;}.cls-5{fill:#e5e5e4;}.cls-6{fill:#707a86;}.cls-8{fill:#fbbb80;}.cls-21{fill:#fff;}.cls-9,.cls-12{stroke:#fff;}.cls-22{fill:#434a51;}.cls-10{fill:#7e457f;}.cls-23,.cls-14{fill:#4e334f;}.cls-11{fill:#a8a8a8;}.cls-16{stroke:#424243;}</style></defs><rect class="cls-20" width="153.5" height="153.5" rx="20.68" ry="20.68"/><polygon class="cls-22" points="52.89 36.71 52.89 46.44 61.92 46.35 60.92 36.71 52.89 36.71"/><circle class="cls-6" cx="57.4" cy="88.18" r="42.11"/><circle class="cls-5" cx="57.4" cy="88.18" r="34.63"/><path class="cls-9" d="M90.76,68.21s-4.64-9.97-16.59-15.04"/><circle class="cls-21" cx="57.4" cy="88.18" r="28.62"/><path class="cls-13" d="M51.24,46.07s5.3-6.65-.19-11.24"/><circle class="cls-6" cx="57.4" cy="26.72" r="10.3"/><circle class="cls-8" cx="57.4" cy="26.72" r="4.84"/><path class="cls-12" d="M63.89,22.45s-.72-1.54-2.56-2.32"/><path class="cls-13" d="M63.86,34.73c-5.49,4.59-.19,11.24-.19,11.24"/><path class="cls-6" d="M62.97,130.29c0,3.07-2.49,5.56-5.56,5.56s-5.56-2.49-5.56-5.56"/><path class="cls-22" d="M61.46,130.29c0,.72-1.82,1.31-4.05,1.31s-4.05-.59-4.05-1.31"/><path class="cls-1" d="M61.37,28.13s28.36-5.98,44.67,17.93,3,59.45-4.33,72.65c-7.32,13.19,14.65,27.88,30.63,12.88,15.98-15,19.42-105.29-38.32-106.7-34.62-.85-34.1.13-34.1.13,0,0-.79,3.37,1.44,3.11Z"/><circle class="cls-19" cx="57.59" cy="88.79" r="3.89"/><line class="cls-16" x1="57.4" y1="88.18" x2="57.4" y2="73.1"/><polygon class="cls-19" points="60.95 75.52 57.4 62.29 53.86 75.52 60.95 75.52"/><line class="cls-19" x1="57.59" y1="88.79" x2="40.71" y2="105.39"/><line class="cls-16" x1="57.59" y1="88.79" x2="48.41" y2="97.81"/><polygon class="cls-19" points="47.65 93.59 40.71 105.39 52.62 98.64 47.65 93.59"/><polygon class="cls-23" points="53.02 36.04 53.02 45.77 62.06 45.68 61.06 36.04 53.02 36.04"/><circle class="cls-10" cx="57.54" cy="87.51" r="42.11"/><circle class="cls-11" cx="57.54" cy="87.51" r="34.63"/><path class="cls-15" d="M90.9,67.55s-4.64-9.97-16.59-15.04"/><circle class="cls-18" cx="57.54" cy="87.51" r="28.62"/><path class="cls-3" d="M51.38,45.4s5.3-6.65-.19-11.24"/><circle class="cls-10" cx="57.54" cy="26.06" r="10.3"/><circle class="cls-7" cx="57.54" cy="26.06" r="4.84"/><path class="cls-2" d="M64.03,21.78s-.72-1.54-2.56-2.32"/><path class="cls-3" d="M63.99,34.07c-5.49,4.59-.19,11.24-.19,11.24"/><path class="cls-14" d="M63.1,130.62c0,3.07-2.49,5.56-5.56,5.56s-5.56-2.49-5.56-5.56"/><path class="cls-1" d="M61.5,27.47s28.36-5.98,44.67,17.93,3,59.45-4.33,72.65c-7.32,13.19,14.65,27.88,30.63,12.88,15.98-15,19.42-105.29-38.32-106.7-34.62-.85-34.1.13-34.1.13,0,0-.79,3.37,1.44,3.11Z"/><circle class="cls-17" cx="57.73" cy="88.12" r="3.89"/><line class="cls-4" x1="57.54" y1="87.51" x2="57.54" y2="72.44"/><polygon class="cls-17" points="61.09 74.85 57.54 61.63 54 74.85 61.09 74.85"/><line class="cls-19" x1="57.73" y1="88.12" x2="40.85" y2="104.72"/><line class="cls-4" x1="57.73" y1="88.12" x2="48.55" y2="97.14"/><polygon class="cls-17" points="47.79 92.92 40.85 104.72 52.76 97.98 47.79 92.92"/></svg>